<svg xmlns="http://www.w3.org/2000/svg" width="1280" height="720" viewBox="0 0 1280 720">
  <defs>
    <linearGradient id="bg" x1="0" y1="0" x2="1" y2="1">
      <stop offset="0" stop-color="#060812"/>
      <stop offset="1" stop-color="#111827"/>
    </linearGradient>
    <radialGradient id="glow" cx="78%" cy="26%" r="60%">
      <stop offset="0" stop-color="#38bdf8" stop-opacity="0.55"/>
      <stop offset="1" stop-color="#38bdf8" stop-opacity="0"/>
    </radialGradient>
  </defs>
  <rect width="1280" height="720" fill="url(#bg)"/>
  <rect width="1280" height="720" fill="url(#glow)"/>
  <g stroke="#263149" stroke-width="1" opacity="0.55">
    <line x1="0" y1="0" x2="0" y2="720"/><line x1="72" y1="0" x2="72" y2="720"/><line x1="144" y1="0" x2="144" y2="720"/><line x1="216" y1="0" x2="216" y2="720"/><line x1="288" y1="0" x2="288" y2="720"/><line x1="360" y1="0" x2="360" y2="720"/><line x1="432" y1="0" x2="432" y2="720"/><line x1="504" y1="0" x2="504" y2="720"/><line x1="576" y1="0" x2="576" y2="720"/><line x1="648" y1="0" x2="648" y2="720"/><line x1="720" y1="0" x2="720" y2="720"/><line x1="792" y1="0" x2="792" y2="720"/><line x1="864" y1="0" x2="864" y2="720"/><line x1="936" y1="0" x2="936" y2="720"/><line x1="1008" y1="0" x2="1008" y2="720"/><line x1="1080" y1="0" x2="1080" y2="720"/><line x1="1152" y1="0" x2="1152" y2="720"/><line x1="1224" y1="0" x2="1224" y2="720"/><line x1="1296" y1="0" x2="1296" y2="720"/><line x1="1368" y1="0" x2="1368" y2="720"/>
    <line x1="0" y1="0" x2="1280" y2="0"/><line x1="0" y1="72" x2="1280" y2="72"/><line x1="0" y1="144" x2="1280" y2="144"/><line x1="0" y1="216" x2="1280" y2="216"/><line x1="0" y1="288" x2="1280" y2="288"/><line x1="0" y1="360" x2="1280" y2="360"/><line x1="0" y1="432" x2="1280" y2="432"/><line x1="0" y1="504" x2="1280" y2="504"/><line x1="0" y1="576" x2="1280" y2="576"/><line x1="0" y1="648" x2="1280" y2="648"/><line x1="0" y1="720" x2="1280" y2="720"/><line x1="0" y1="792" x2="1280" y2="792"/>
  </g>
  <text x="80" y="296" fill="#f8fafc" font-family="Arial, sans-serif" font-size="76" font-weight="800">Agent 资产库</text>
  <text x="84" y="366" fill="#b8c3d9" font-family="Arial, sans-serif" font-size="34">角色 / 场景 / 道具 / 参考素材统一管理</text>
  <text x="84" y="628" fill="#38bdf8" font-family="Consolas, monospace" font-size="24">NIXIANG CANVAS / API NODE READY</text>
</svg>